<svg width="69" height="42" viewBox="0 0 69 42" fill="none" xmlns="http://www.w3.org/2000/svg">
<path d="M19.8257 17.1808L18.1546 17.5195V1.4169H23.4029V20.9589H16.588L5.28199 4.88234L6.92697 4.54361V20.9589H1.67868V1.4169H8.6764L19.8257 17.1808Z" fill="white"/>
<path d="M44.8316 6.96682H39.5311C39.4441 6.32411 39.1568 5.7943 38.6694 5.37741C38.1994 4.94314 37.5206 4.72601 36.6328 4.72601C36.1106 4.72601 35.658 4.79549 35.275 4.93446C34.9095 5.07342 34.631 5.27318 34.4395 5.53374C34.248 5.7943 34.1523 6.0896 34.1523 6.41965C34.1523 6.69758 34.2306 6.97551 34.3872 7.25344C34.5613 7.53137 34.8398 7.82667 35.2228 8.13934L50.1321 20.9589H43.4738L31.1495 10.4323C30.401 9.78956 29.7656 9.1121 29.2434 8.3999C28.7386 7.67033 28.4862 6.88865 28.4862 6.05486C28.4862 5.04736 28.7908 4.17015 29.4001 3.42321C30.0093 2.6589 30.9058 2.0683 32.0895 1.6514C33.2732 1.21713 34.718 1 36.4239 1C38.1646 1 39.6442 1.26056 40.8627 1.78168C42.0987 2.3028 43.0474 3.015 43.7088 3.91827C44.3877 4.82155 44.762 5.83773 44.8316 6.96682ZM43.4477 10.1717H48.9832L42.7427 17.2068C41.8724 18.197 41.002 19.0047 40.1316 19.63C39.2613 20.238 38.3213 20.681 37.3117 20.9589C36.302 21.2368 35.1532 21.3758 33.865 21.3758C32.2288 21.3758 30.8188 21.1239 29.6351 20.6202C28.4688 20.099 27.5723 19.4042 26.9457 18.5357C26.319 17.6672 26.0057 16.677 26.0057 15.5653C26.0057 14.5925 26.2668 13.7066 26.789 12.9076C27.3112 12.1085 28.1293 11.4398 29.2434 10.9013C30.3575 10.3628 31.811 10.0067 33.6039 9.83298L34.7006 11.9175C33.6213 12.1433 32.7858 12.5168 32.1939 13.0379C31.6021 13.5416 31.3062 14.1496 31.3062 14.8618C31.3062 15.3308 31.4454 15.7651 31.7239 16.1646C32.0199 16.5467 32.4115 16.8507 32.8989 17.0765C33.4037 17.3024 33.9956 17.4153 34.6745 17.4153C35.893 17.4153 36.9026 17.1808 37.7033 16.7118C38.5215 16.2428 39.2178 15.6435 39.7922 14.9139L43.4477 10.1717Z" fill="white"/>
<path d="M55.9057 3.78799H61.3367V20.9589H55.9057V3.78799ZM48.438 1.4169H68.8044V6.2112H48.438V1.4169Z" fill="white"/>
<path d="M2.12774 38.3087V37.2268H9.28345V38.3087H2.12774ZM6.50519 30.6812L11.5061 40.8242H10.1237L5.42099 31.114H6.09862L1.38235 40.8242H0L5.00086 30.6812H6.50519Z" fill="white"/>
<path d="M22.443 36.4018C22.434 37.042 22.3075 37.6415 22.0635 38.2005C21.8286 38.7595 21.4898 39.2509 21.0471 39.6747C20.6134 40.0894 20.0849 40.414 19.4615 40.6484C18.8471 40.8828 18.1559 41 17.3879 41C16.5748 41 15.8249 40.8783 15.1382 40.6349C14.4606 40.3824 13.8688 40.0263 13.3628 39.5665C12.8659 39.1066 12.4819 38.5567 12.2109 37.9165C11.9398 37.2674 11.8043 36.5461 11.8043 35.7527C11.8043 34.9593 11.9398 34.2425 12.2109 33.6024C12.491 32.9532 12.884 32.3987 13.39 31.9389C13.8959 31.4791 14.4922 31.1275 15.1789 30.8841C15.8655 30.6316 16.6245 30.5054 17.4557 30.5054C18.4495 30.5054 19.3259 30.6722 20.0849 31.0058C20.8529 31.3394 21.4717 31.7992 21.9416 32.3852C22.4114 32.9622 22.6915 33.6249 22.7818 34.3732H21.4808C21.3814 33.8233 21.151 33.3454 20.7896 32.9397C20.4282 32.525 19.9629 32.2049 19.3937 31.9795C18.8335 31.7541 18.1785 31.6414 17.4286 31.6414C16.5522 31.6414 15.7887 31.8082 15.1382 32.1418C14.4967 32.4754 13.9953 32.9487 13.6339 33.5618C13.2815 34.1749 13.1054 34.9052 13.1054 35.7527C13.1054 36.5912 13.2861 37.3215 13.6475 37.9436C14.0089 38.5657 14.5193 39.0435 15.1789 39.3771C15.8384 39.7107 16.6109 39.8775 17.4964 39.8775C18.3637 39.8775 19.1181 39.7197 19.7596 39.4042C20.4101 39.0886 20.9161 38.6558 21.2775 38.1059C21.6389 37.5559 21.8286 36.9248 21.8467 36.2125L22.443 36.4018ZM17.9978 36.9563V35.942H22.9038V40.8242H21.9145L21.7925 36.5236L22.1449 36.9563H17.9978Z" fill="white"/>
<path d="M32.8461 35.2117V36.2937H25.9208V35.2117H32.8461ZM26.7204 35.7527L25.9479 40.5131L25.2703 39.7152H33.212V40.8242H24.6469L25.4871 35.7527L24.6469 30.6812H33.1443V31.7902H25.2703L25.9479 30.9922L26.7204 35.7527Z" fill="white"/>
<path d="M44.5687 40.1886L43.9453 40.2291V30.6812H45.1786V40.8242H43.5387L35.8002 31.2762L36.4237 31.2357V40.8242H35.1904V30.6812H36.8438L44.5687 40.1886Z" fill="white"/>
<path d="M58.0665 36.9158C57.9762 37.7182 57.6916 38.4304 57.2127 39.0525C56.7339 39.6656 56.1059 40.1435 55.3289 40.4861C54.561 40.8287 53.6801 41 52.6862 41C51.5659 41 50.5811 40.7791 49.7318 40.3373C48.8915 39.8955 48.2365 39.2825 47.7667 38.4981C47.2968 37.7047 47.0619 36.7895 47.0619 35.7527C47.0619 34.7068 47.2968 33.7917 47.7667 33.0073C48.2365 32.2229 48.8915 31.6098 49.7318 31.1681C50.5811 30.7263 51.5659 30.5054 52.6862 30.5054C53.6801 30.5054 54.561 30.6767 55.3289 31.0193C56.1059 31.3619 56.7339 31.8398 57.2127 32.4528C57.6916 33.0569 57.9762 33.7647 58.0665 34.5761H56.7791C56.6706 33.981 56.4357 33.4671 56.0743 33.0344C55.7129 32.5926 55.2431 32.2545 54.6649 32.0201C54.0866 31.7766 53.4226 31.6549 52.6727 31.6549C51.7963 31.6549 51.0328 31.8217 50.3823 32.1553C49.7408 32.4889 49.2439 32.9622 48.8915 33.5753C48.5392 34.1884 48.363 34.9142 48.363 35.7527C48.363 36.5822 48.5392 37.3034 48.8915 37.9165C49.2439 38.5296 49.7408 39.0075 50.3823 39.3501C51.0328 39.6837 51.7963 39.8505 52.6727 39.8505C53.4226 39.8505 54.0866 39.7333 54.6649 39.4988C55.2431 39.2554 55.7129 38.9173 56.0743 38.4845C56.4357 38.0428 56.6706 37.5198 56.7791 36.9158H58.0665Z" fill="white"/>
<path d="M62.9285 40.8242V36.0232H64.2024V40.8242H62.9285ZM58.1174 30.6812H59.581L63.9856 36.1314H63.1589L67.5363 30.6812H69L63.972 36.9293L63.1724 36.9428L58.1174 30.6812Z" fill="white"/>
</svg>
