<svg width="69" height="40" viewBox="0 0 69 40" fill="none" xmlns="http://www.w3.org/2000/svg">
<path d="M19.8257 16.1808L18.1546 16.5195V0.416895H23.4029V19.9589H16.588L5.28199 3.88234L6.92697 3.54361V19.9589H1.67868V0.416895H8.6764L19.8257 16.1808Z" fill="white"/>
<path d="M44.8316 5.96682H39.5311C39.4441 5.32411 39.1568 4.7943 38.6694 4.37741C38.1994 3.94314 37.5206 3.72601 36.6328 3.72601C36.1106 3.72601 35.658 3.79549 35.275 3.93446C34.9095 4.07342 34.631 4.27318 34.4395 4.53374C34.248 4.7943 34.1523 5.0896 34.1523 5.41965C34.1523 5.69758 34.2306 5.97551 34.3872 6.25344C34.5613 6.53137 34.8398 6.82667 35.2228 7.13934L50.1321 19.9589H43.4738L31.1495 9.43227C30.401 8.78956 29.7656 8.1121 29.2434 7.3999C28.7386 6.67033 28.4862 5.88865 28.4862 5.05486C28.4862 4.04736 28.7908 3.17015 29.4001 2.42321C30.0093 1.6589 30.9058 1.0683 32.0895 0.651399C33.2732 0.217133 34.718 0 36.4239 0C38.1646 0 39.6442 0.26056 40.8627 0.781679C42.0987 1.3028 43.0474 2.015 43.7088 2.91827C44.3877 3.82155 44.762 4.83773 44.8316 5.96682ZM43.4477 9.17171H48.9832L42.7427 16.2068C41.8724 17.197 41.002 18.0047 40.1316 18.63C39.2613 19.238 38.3213 19.681 37.3117 19.9589C36.302 20.2368 35.1532 20.3758 33.865 20.3758C32.2288 20.3758 30.8188 20.1239 29.6351 19.6202C28.4688 19.099 27.5723 18.4042 26.9457 17.5357C26.319 16.6672 26.0057 15.677 26.0057 14.5653C26.0057 13.5925 26.2668 12.7066 26.789 11.9076C27.3112 11.1085 28.1293 10.4398 29.2434 9.90128C30.3575 9.36279 31.811 9.00669 33.6039 8.83298L34.7006 10.9175C33.6213 11.1433 32.7858 11.5168 32.1939 12.0379C31.6021 12.5416 31.3062 13.1496 31.3062 13.8618C31.3062 14.3308 31.4454 14.7651 31.7239 15.1646C32.0199 15.5467 32.4115 15.8507 32.8989 16.0765C33.4037 16.3024 33.9956 16.4153 34.6745 16.4153C35.893 16.4153 36.9026 16.1808 37.7033 15.7118C38.5215 15.2428 39.2178 14.6435 39.7922 13.9139L43.4477 9.17171Z" fill="white"/>
<path d="M55.9057 2.78799H61.3367V19.9589H55.9057V2.78799ZM48.438 0.416895H68.8044V5.2112H48.438V0.416895Z" fill="white"/>
<path d="M2.12774 37.3087V36.2268H9.28345V37.3087H2.12774ZM6.50519 29.6812L11.5061 39.8242H10.1237L5.42099 30.114H6.09862L1.38235 39.8242H0L5.00086 29.6812H6.50519Z" fill="white"/>
<path d="M22.443 35.4018C22.434 36.042 22.3075 36.6415 22.0635 37.2005C21.8286 37.7595 21.4898 38.2509 21.0471 38.6747C20.6134 39.0894 20.0849 39.414 19.4615 39.6484C18.8471 39.8828 18.1559 40 17.3879 40C16.5748 40 15.8249 39.8783 15.1382 39.6349C14.4606 39.3824 13.8688 39.0263 13.3628 38.5665C12.8659 38.1066 12.4819 37.5567 12.2109 36.9165C11.9398 36.2674 11.8043 35.5461 11.8043 34.7527C11.8043 33.9593 11.9398 33.2425 12.2109 32.6024C12.491 31.9532 12.884 31.3987 13.39 30.9389C13.8959 30.4791 14.4922 30.1275 15.1789 29.8841C15.8655 29.6316 16.6245 29.5054 17.4557 29.5054C18.4495 29.5054 19.3259 29.6722 20.0849 30.0058C20.8529 30.3394 21.4717 30.7992 21.9416 31.3852C22.4114 31.9622 22.6915 32.6249 22.7818 33.3732H21.4808C21.3814 32.8233 21.151 32.3454 20.7896 31.9397C20.4282 31.525 19.9629 31.2049 19.3937 30.9795C18.8335 30.7541 18.1785 30.6414 17.4286 30.6414C16.5522 30.6414 15.7887 30.8082 15.1382 31.1418C14.4967 31.4754 13.9953 31.9487 13.6339 32.5618C13.2815 33.1749 13.1054 33.9052 13.1054 34.7527C13.1054 35.5912 13.2861 36.3215 13.6475 36.9436C14.0089 37.5657 14.5193 38.0435 15.1789 38.3771C15.8384 38.7107 16.6109 38.8775 17.4964 38.8775C18.3637 38.8775 19.1181 38.7197 19.7596 38.4042C20.4101 38.0886 20.9161 37.6558 21.2775 37.1059C21.6389 36.5559 21.8286 35.9248 21.8467 35.2125L22.443 35.4018ZM17.9978 35.9563V34.942H22.9038V39.8242H21.9145L21.7925 35.5236L22.1449 35.9563H17.9978Z" fill="white"/>
<path d="M32.8461 34.2117V35.2937H25.9208V34.2117H32.8461ZM26.7204 34.7527L25.9479 39.5131L25.2703 38.7152H33.212V39.8242H24.6469L25.4871 34.7527L24.6469 29.6812H33.1443V30.7902H25.2703L25.9479 29.9922L26.7204 34.7527Z" fill="white"/>
<path d="M44.5687 39.1886L43.9453 39.2291V29.6812H45.1786V39.8242H43.5387L35.8002 30.2762L36.4237 30.2357V39.8242H35.1904V29.6812H36.8438L44.5687 39.1886Z" fill="white"/>
<path d="M58.0665 35.9158C57.9762 36.7182 57.6916 37.4304 57.2127 38.0525C56.7339 38.6656 56.1059 39.1435 55.3289 39.4861C54.561 39.8287 53.6801 40 52.6862 40C51.5659 40 50.5811 39.7791 49.7318 39.3373C48.8915 38.8955 48.2365 38.2825 47.7667 37.4981C47.2968 36.7047 47.0619 35.7895 47.0619 34.7527C47.0619 33.7068 47.2968 32.7917 47.7667 32.0073C48.2365 31.2229 48.8915 30.6098 49.7318 30.1681C50.5811 29.7263 51.5659 29.5054 52.6862 29.5054C53.6801 29.5054 54.561 29.6767 55.3289 30.0193C56.1059 30.3619 56.7339 30.8398 57.2127 31.4528C57.6916 32.0569 57.9762 32.7647 58.0665 33.5761H56.7791C56.6706 32.981 56.4357 32.4671 56.0743 32.0344C55.7129 31.5926 55.2431 31.2545 54.6649 31.0201C54.0866 30.7766 53.4226 30.6549 52.6727 30.6549C51.7963 30.6549 51.0328 30.8217 50.3823 31.1553C49.7408 31.4889 49.2439 31.9622 48.8915 32.5753C48.5392 33.1884 48.363 33.9142 48.363 34.7527C48.363 35.5822 48.5392 36.3034 48.8915 36.9165C49.2439 37.5296 49.7408 38.0075 50.3823 38.3501C51.0328 38.6837 51.7963 38.8505 52.6727 38.8505C53.4226 38.8505 54.0866 38.7333 54.6649 38.4988C55.2431 38.2554 55.7129 37.9173 56.0743 37.4845C56.4357 37.0428 56.6706 36.5198 56.7791 35.9158H58.0665Z" fill="white"/>
<path d="M62.9285 39.8242V35.0232H64.2024V39.8242H62.9285ZM58.1174 29.6812H59.581L63.9856 35.1314H63.1589L67.5363 29.6812H69L63.972 35.9293L63.1724 35.9428L58.1174 29.6812Z" fill="white"/>
</svg>
