<svg width="1755" height="179" viewBox="0 0 1755 179" fill="none" xmlns="http://www.w3.org/2000/svg">
<mask id="path-1-outside-1_4383_205" maskUnits="userSpaceOnUse" x="0" y="0" width="1755" height="179" fill="black">
<rect fill="white" width="1755" height="179"/>
<path d="M157.619 155.098L145.605 156.432V6.11311H174.082V172.887H136.706L19.6855 22.5681L31.4765 21.2339V172.887H3V6.11311H41.2653L157.619 155.098ZM346.615 51.0308H317.693C316.655 43.174 313.169 36.7995 307.237 31.9075C301.453 27.0154 293.295 24.5694 282.765 24.5694C276.684 24.5694 271.345 25.3847 266.747 27.0154C262.149 28.6461 258.515 31.0921 255.846 34.3535C253.324 37.4666 252.064 41.3209 252.064 45.9165C252.064 49.1778 253.102 52.7357 255.178 56.59C257.403 60.4443 261.185 64.5951 266.524 69.0424L389.329 172.887H351.731L244.055 82.162C236.49 75.6393 230.78 69.3389 226.924 63.2609C223.216 57.1829 221.362 50.8826 221.362 44.3599C221.362 36.0583 223.81 28.8685 228.704 22.7905C233.598 16.5643 240.569 11.7464 249.616 8.33677C258.812 4.77892 269.639 3 282.097 3C295.297 3 306.569 5.07541 315.913 9.22622C325.405 13.377 332.747 19.0844 337.938 26.3483C343.129 33.464 346.021 41.6915 346.615 51.0308ZM348.172 84.608H379.096L334.824 139.31C328.298 147.463 321.475 154.282 314.356 159.767C307.385 165.104 299.747 169.181 291.441 171.997C283.136 174.666 273.718 176 263.187 176C250.135 176 238.938 173.85 229.594 169.551C220.398 165.104 213.279 159.249 208.236 151.985C203.342 144.721 200.895 136.641 200.895 127.747C200.895 119.297 203.045 111.737 207.347 105.066C211.648 98.2464 218.174 92.4649 226.924 87.7211C235.823 82.9773 247.021 79.6418 260.518 77.7147L267.859 89.5C255.697 92.3166 246.353 96.7639 239.828 102.842C233.302 108.92 230.039 116.036 230.039 124.189C230.039 129.377 231.448 134.195 234.266 138.643C237.232 143.09 241.385 146.648 246.724 149.316C252.212 151.985 258.738 153.319 266.302 153.319C278.019 153.319 287.882 150.947 295.891 146.203C303.9 141.459 310.945 135.011 317.026 126.857L348.172 84.608ZM445.949 19.6774H475.315V172.887H445.949V19.6774ZM376.982 6.11311H544.282V31.9075H376.982V6.11311ZM631.182 134.64V110.402H747.757V134.64H631.182ZM708.602 6.11311L788.692 172.887H757.324L684.575 17.2314H695.921L623.173 172.887H591.804L671.894 6.11311H708.602ZM966.982 100.396C966.834 110.773 964.831 120.557 960.975 129.748C957.119 138.791 951.631 146.796 944.512 153.764C937.393 160.731 928.717 166.216 918.483 170.219C908.397 174.073 896.829 176 883.777 176C870.577 176 858.341 173.999 847.069 169.996C835.797 165.994 825.934 160.286 817.48 152.874C809.174 145.314 802.723 136.197 798.125 125.523C793.527 114.85 791.228 102.842 791.228 89.5C791.228 76.1581 793.527 64.1504 798.125 53.4769C802.871 42.8033 809.471 33.7605 817.925 26.3483C826.379 18.7879 836.316 13.0064 847.736 9.00386C859.157 5.00129 871.689 3 885.334 3C902.391 3 917.296 5.81663 930.051 11.4499C942.955 16.9349 953.337 24.4953 961.198 34.1311C969.058 43.7669 973.879 54.8111 975.658 67.2635H945.847C944.215 59.4066 940.656 52.5874 935.168 46.8059C929.829 41.0244 922.932 36.5771 914.478 33.464C906.024 30.3509 896.235 28.7944 885.112 28.7944C872.06 28.7944 860.714 31.2404 851.073 36.1324C841.581 40.8762 834.166 47.7695 828.826 56.8123C823.635 65.8552 821.04 76.7511 821.04 89.5C821.04 102.249 823.709 113.219 829.049 122.41C834.536 131.601 842.249 138.643 852.186 143.535C862.123 148.427 873.84 150.873 887.337 150.873C900.388 150.873 911.809 148.649 921.597 144.202C931.386 139.755 939.099 133.602 944.735 125.745C950.371 117.74 953.411 108.475 953.856 97.9499L966.982 100.396ZM893.121 113.071V90.8342H977.438V172.887H955.636L952.076 103.731L958.973 113.071H893.121ZM1143.69 77.2699V101.73H1027.11V77.2699H1143.69ZM1046.47 89.5L1034.68 163.992L1020.66 147.537H1150.14V172.887H1004.64L1017.99 89.5L1004.64 6.11311H1149.03V31.4627H1020.66L1034.68 15.0077L1046.47 89.5ZM1335.38 155.098L1323.36 156.432V6.11311H1351.84V172.887H1314.47L1197.44 22.5681L1209.24 21.2339V172.887H1180.76V6.11311H1219.02L1335.38 155.098ZM1565.09 106.844C1563.6 120.483 1558.78 132.565 1550.63 143.09C1542.62 153.467 1532.09 161.546 1519.03 167.328C1505.98 173.109 1491.08 176 1474.32 176C1455.63 176 1439.24 172.368 1425.15 165.104C1411.06 157.84 1400.09 147.76 1392.22 134.862C1384.36 121.817 1380.43 106.696 1380.43 89.5C1380.43 72.3038 1384.36 57.2571 1392.22 44.3599C1400.09 31.3145 1411.06 21.1598 1425.15 13.8959C1439.24 6.63196 1455.63 3 1474.32 3C1491.08 3 1505.98 5.89075 1519.03 11.6722C1532.09 17.4537 1542.62 25.533 1550.63 35.91C1558.78 46.2871 1563.6 58.3689 1565.09 72.1555H1535.5C1533.87 63.2609 1530.31 55.6264 1524.82 49.2519C1519.48 42.8775 1512.51 37.9854 1503.91 34.5758C1495.3 31.018 1485.37 29.2391 1474.09 29.2391C1461.04 29.2391 1449.7 31.6851 1440.06 36.5771C1430.56 41.4692 1423.22 48.4366 1418.03 57.4794C1412.84 66.5223 1410.25 77.1958 1410.25 89.5C1410.25 101.804 1412.84 112.478 1418.03 121.521C1423.22 130.563 1430.56 137.531 1440.06 142.423C1449.7 147.315 1461.04 149.761 1474.09 149.761C1485.37 149.761 1495.3 148.056 1503.91 144.647C1512.51 141.237 1519.48 136.345 1524.82 129.97C1530.31 123.448 1533.87 115.739 1535.5 106.844H1565.09ZM1641.1 172.887V93.2802H1670.47V172.887H1641.1ZM1562.35 6.11311H1595.49L1663.57 91.5013H1647.77L1715.85 6.11311H1749L1665.13 111.292L1646.44 111.514L1562.35 6.11311Z"/>
</mask>
<path d="M157.619 155.098L145.605 156.432V6.11311H174.082V172.887H136.706L19.6855 22.5681L31.4765 21.2339V172.887H3V6.11311H41.2653L157.619 155.098ZM346.615 51.0308H317.693C316.655 43.174 313.169 36.7995 307.237 31.9075C301.453 27.0154 293.295 24.5694 282.765 24.5694C276.684 24.5694 271.345 25.3847 266.747 27.0154C262.149 28.6461 258.515 31.0921 255.846 34.3535C253.324 37.4666 252.064 41.3209 252.064 45.9165C252.064 49.1778 253.102 52.7357 255.178 56.59C257.403 60.4443 261.185 64.5951 266.524 69.0424L389.329 172.887H351.731L244.055 82.162C236.49 75.6393 230.78 69.3389 226.924 63.2609C223.216 57.1829 221.362 50.8826 221.362 44.3599C221.362 36.0583 223.81 28.8685 228.704 22.7905C233.598 16.5643 240.569 11.7464 249.616 8.33677C258.812 4.77892 269.639 3 282.097 3C295.297 3 306.569 5.07541 315.913 9.22622C325.405 13.377 332.747 19.0844 337.938 26.3483C343.129 33.464 346.021 41.6915 346.615 51.0308ZM348.172 84.608H379.096L334.824 139.31C328.298 147.463 321.475 154.282 314.356 159.767C307.385 165.104 299.747 169.181 291.441 171.997C283.136 174.666 273.718 176 263.187 176C250.135 176 238.938 173.85 229.594 169.551C220.398 165.104 213.279 159.249 208.236 151.985C203.342 144.721 200.895 136.641 200.895 127.747C200.895 119.297 203.045 111.737 207.347 105.066C211.648 98.2464 218.174 92.4649 226.924 87.7211C235.823 82.9773 247.021 79.6418 260.518 77.7147L267.859 89.5C255.697 92.3166 246.353 96.7639 239.828 102.842C233.302 108.92 230.039 116.036 230.039 124.189C230.039 129.377 231.448 134.195 234.266 138.643C237.232 143.09 241.385 146.648 246.724 149.316C252.212 151.985 258.738 153.319 266.302 153.319C278.019 153.319 287.882 150.947 295.891 146.203C303.9 141.459 310.945 135.011 317.026 126.857L348.172 84.608ZM445.949 19.6774H475.315V172.887H445.949V19.6774ZM376.982 6.11311H544.282V31.9075H376.982V6.11311ZM631.182 134.64V110.402H747.757V134.64H631.182ZM708.602 6.11311L788.692 172.887H757.324L684.575 17.2314H695.921L623.173 172.887H591.804L671.894 6.11311H708.602ZM966.982 100.396C966.834 110.773 964.831 120.557 960.975 129.748C957.119 138.791 951.631 146.796 944.512 153.764C937.393 160.731 928.717 166.216 918.483 170.219C908.397 174.073 896.829 176 883.777 176C870.577 176 858.341 173.999 847.069 169.996C835.797 165.994 825.934 160.286 817.48 152.874C809.174 145.314 802.723 136.197 798.125 125.523C793.527 114.85 791.228 102.842 791.228 89.5C791.228 76.1581 793.527 64.1504 798.125 53.4769C802.871 42.8033 809.471 33.7605 817.925 26.3483C826.379 18.7879 836.316 13.0064 847.736 9.00386C859.157 5.00129 871.689 3 885.334 3C902.391 3 917.296 5.81663 930.051 11.4499C942.955 16.9349 953.337 24.4953 961.198 34.1311C969.058 43.7669 973.879 54.8111 975.658 67.2635H945.847C944.215 59.4066 940.656 52.5874 935.168 46.8059C929.829 41.0244 922.932 36.5771 914.478 33.464C906.024 30.3509 896.235 28.7944 885.112 28.7944C872.06 28.7944 860.714 31.2404 851.073 36.1324C841.581 40.8762 834.166 47.7695 828.826 56.8123C823.635 65.8552 821.04 76.7511 821.04 89.5C821.04 102.249 823.709 113.219 829.049 122.41C834.536 131.601 842.249 138.643 852.186 143.535C862.123 148.427 873.84 150.873 887.337 150.873C900.388 150.873 911.809 148.649 921.597 144.202C931.386 139.755 939.099 133.602 944.735 125.745C950.371 117.74 953.411 108.475 953.856 97.9499L966.982 100.396ZM893.121 113.071V90.8342H977.438V172.887H955.636L952.076 103.731L958.973 113.071H893.121ZM1143.69 77.2699V101.73H1027.11V77.2699H1143.69ZM1046.47 89.5L1034.68 163.992L1020.66 147.537H1150.14V172.887H1004.64L1017.99 89.5L1004.64 6.11311H1149.03V31.4627H1020.66L1034.68 15.0077L1046.47 89.5ZM1335.38 155.098L1323.36 156.432V6.11311H1351.84V172.887H1314.47L1197.44 22.5681L1209.24 21.2339V172.887H1180.76V6.11311H1219.02L1335.38 155.098ZM1565.09 106.844C1563.6 120.483 1558.78 132.565 1550.63 143.09C1542.62 153.467 1532.09 161.546 1519.03 167.328C1505.98 173.109 1491.08 176 1474.32 176C1455.63 176 1439.24 172.368 1425.15 165.104C1411.06 157.84 1400.09 147.76 1392.22 134.862C1384.36 121.817 1380.43 106.696 1380.43 89.5C1380.43 72.3038 1384.36 57.2571 1392.22 44.3599C1400.09 31.3145 1411.06 21.1598 1425.15 13.8959C1439.24 6.63196 1455.63 3 1474.32 3C1491.08 3 1505.98 5.89075 1519.03 11.6722C1532.09 17.4537 1542.62 25.533 1550.63 35.91C1558.78 46.2871 1563.6 58.3689 1565.09 72.1555H1535.5C1533.87 63.2609 1530.31 55.6264 1524.82 49.2519C1519.48 42.8775 1512.51 37.9854 1503.91 34.5758C1495.3 31.018 1485.37 29.2391 1474.09 29.2391C1461.04 29.2391 1449.7 31.6851 1440.06 36.5771C1430.56 41.4692 1423.22 48.4366 1418.03 57.4794C1412.84 66.5223 1410.25 77.1958 1410.25 89.5C1410.25 101.804 1412.84 112.478 1418.03 121.521C1423.22 130.563 1430.56 137.531 1440.06 142.423C1449.7 147.315 1461.04 149.761 1474.09 149.761C1485.37 149.761 1495.3 148.056 1503.91 144.647C1512.51 141.237 1519.48 136.345 1524.82 129.97C1530.31 123.448 1533.87 115.739 1535.5 106.844H1565.09ZM1641.1 172.887V93.2802H1670.47V172.887H1641.1ZM1562.35 6.11311H1595.49L1663.57 91.5013H1647.77L1715.85 6.11311H1749L1665.13 111.292L1646.44 111.514L1562.35 6.11311Z" stroke="#0066FF" stroke-width="5.44459" mask="url(#path-1-outside-1_4383_205)"/>
</svg>
