<svg width="375" height="353" viewBox="0 0 375 353" fill="none" xmlns="http://www.w3.org/2000/svg">
<mask id="path-1-outside-1_4265_521" maskUnits="userSpaceOnUse" x="10" y="-0.123291" width="365" height="119" fill="black">
<rect fill="white" x="10" y="-0.123291" width="365" height="119"/>
<path d="M115.292 103.037L107.3 103.925V3.8767H126.244V114.877H101.38L23.532 14.8287L31.376 13.9407V114.877H12.432V3.8767H37.888L115.292 103.037ZM241.021 33.7727H221.781C221.091 28.5434 218.772 24.3007 214.825 21.0447C210.977 17.7887 205.551 16.1607 198.545 16.1607C194.5 16.1607 190.948 16.7034 187.889 17.7887C184.831 18.874 182.413 20.502 180.637 22.6727C178.96 24.7447 178.121 27.31 178.121 30.3687C178.121 32.5394 178.812 34.9074 180.193 37.4727C181.673 40.038 184.189 42.8007 187.741 45.7607L269.437 114.877H244.425L172.793 54.4927C167.761 50.1514 163.963 45.958 161.397 41.9127C158.931 37.8674 157.697 33.674 157.697 29.3327C157.697 23.8074 159.325 19.022 162.581 14.9767C165.837 10.8327 170.475 7.62604 176.493 5.35671C182.611 2.9887 189.813 1.8047 198.101 1.8047C206.883 1.8047 214.381 3.18603 220.597 5.9487C226.912 8.71137 231.796 12.51 235.249 17.3447C238.703 22.0807 240.627 27.5567 241.021 33.7727ZM242.057 56.1207H262.629L233.177 92.5287C228.836 97.9554 224.297 102.494 219.561 106.145C214.924 109.697 209.843 112.41 204.317 114.285C198.792 116.061 192.527 116.949 185.521 116.949C176.839 116.949 169.389 115.518 163.173 112.657C157.056 109.697 152.32 105.799 148.965 100.965C145.709 96.13 144.081 90.7527 144.081 84.8327C144.081 79.2087 145.512 74.1767 148.373 69.7367C151.235 65.198 155.576 61.35 161.397 58.1927C167.317 55.0354 174.767 52.8154 183.745 51.5327L188.629 59.3767C180.539 61.2514 174.323 64.2114 169.981 68.2567C165.64 72.302 163.469 77.038 163.469 82.4647C163.469 85.918 164.407 89.1247 166.281 92.0847C168.255 95.0447 171.017 97.4127 174.569 99.1887C178.22 100.965 182.561 101.853 187.593 101.853C195.388 101.853 201.949 100.274 207.277 97.1167C212.605 93.9594 217.292 89.6674 221.337 84.2407L242.057 56.1207ZM307.103 12.9047H326.639V114.877H307.103V12.9047ZM261.223 3.8767H372.519V21.0447H261.223V3.8767Z"/>
</mask>
<path d="M115.292 103.037L115.491 104.83L118.703 104.473L116.715 101.926L115.292 103.037ZM107.3 103.925H105.495V105.941L107.499 105.718L107.3 103.925ZM107.3 3.8767V2.07203H105.495V3.8767H107.3ZM126.244 3.8767H128.049V2.07203H126.244V3.8767ZM126.244 114.877V116.681H128.049V114.877H126.244ZM101.38 114.877L99.9557 115.985L100.498 116.681H101.38V114.877ZM23.532 14.8287L23.329 13.0355L20.1317 13.3974L22.1077 15.937L23.532 14.8287ZM31.376 13.9407H33.1807V11.9202L31.173 12.1475L31.376 13.9407ZM31.376 114.877V116.681H33.1807V114.877H31.376ZM12.432 114.877H10.6273V116.681H12.432V114.877ZM12.432 3.8767V2.07203H10.6273V3.8767H12.432ZM37.888 3.8767L39.3106 2.76624L38.7687 2.07203H37.888V3.8767ZM115.292 103.037L115.093 101.243L107.101 102.131L107.3 103.925L107.499 105.718L115.491 104.83L115.292 103.037ZM107.3 103.925H109.105V3.8767H107.3H105.495V103.925H107.3ZM107.3 3.8767V5.68137H126.244V3.8767V2.07203H107.3V3.8767ZM126.244 3.8767H124.439V114.877H126.244H128.049V3.8767H126.244ZM126.244 114.877V113.072H101.38V114.877V116.681H126.244V114.877ZM101.38 114.877L102.804 113.768L24.9563 13.7205L23.532 14.8287L22.1077 15.937L99.9557 115.985L101.38 114.877ZM23.532 14.8287L23.735 16.6219L31.579 15.7339L31.376 13.9407L31.173 12.1475L23.329 13.0355L23.532 14.8287ZM31.376 13.9407H29.5713V114.877H31.376H33.1807V13.9407H31.376ZM31.376 114.877V113.072H12.432V114.877V116.681H31.376V114.877ZM12.432 114.877H14.2367V3.8767H12.432H10.6273V114.877H12.432ZM12.432 3.8767V5.68137H37.888V3.8767V2.07203H12.432V3.8767ZM37.888 3.8767L36.4654 4.98716L113.869 104.147L115.292 103.037L116.715 101.926L39.3106 2.76624L37.888 3.8767ZM241.021 33.7727V35.5774H242.944L242.823 33.6584L241.021 33.7727ZM221.781 33.7727L219.992 34.009L220.199 35.5774H221.781V33.7727ZM214.825 21.0447L213.66 22.4224L213.668 22.4296L213.677 22.4368L214.825 21.0447ZM187.889 17.7887L188.493 19.4895V19.4895L187.889 17.7887ZM180.637 22.6727L179.241 21.5299L179.235 21.5372L180.637 22.6727ZM180.193 37.4727L178.605 38.3283L178.617 38.3516L178.63 38.3745L180.193 37.4727ZM187.741 45.7607L188.907 44.3829L188.897 44.3743L187.741 45.7607ZM269.437 114.877V116.681H274.365L270.603 113.499L269.437 114.877ZM244.425 114.877L243.262 116.257L243.766 116.681H244.425V114.877ZM172.793 54.4927L171.615 55.8591L171.622 55.8659L171.63 55.8725L172.793 54.4927ZM161.397 41.9127L159.857 42.8522L159.865 42.8658L159.873 42.8792L161.397 41.9127ZM162.581 14.9767L163.987 16.1083L163.994 16.1L164.001 16.0917L162.581 14.9767ZM176.493 5.35671L177.13 7.04533L177.138 7.04254L177.145 7.03968L176.493 5.35671ZM220.597 5.9487L219.865 7.59785L219.874 7.60206L220.597 5.9487ZM235.249 17.3447L233.781 18.3936L233.786 18.4008L233.791 18.408L235.249 17.3447ZM242.057 56.1207V54.316H241.146L240.605 55.0502L242.057 56.1207ZM262.629 56.1207L264.033 57.2557L266.411 54.316H262.629V56.1207ZM233.177 92.5287L231.774 91.3937L231.768 91.4013L233.177 92.5287ZM219.561 106.145L220.659 107.577L220.663 107.574L219.561 106.145ZM204.317 114.285L204.87 116.003L204.884 115.998L204.897 115.994L204.317 114.285ZM163.173 112.657L162.387 114.281L162.403 114.289L162.419 114.296L163.173 112.657ZM148.965 100.965L147.469 101.973L147.476 101.983L147.483 101.994L148.965 100.965ZM148.373 69.7367L149.89 70.7143L149.895 70.7067L149.9 70.6991L148.373 69.7367ZM161.397 58.1927L160.548 56.6003L160.537 56.6063L161.397 58.1927ZM183.745 51.5327L185.277 50.5788L184.655 49.5797L183.49 49.7462L183.745 51.5327ZM188.629 59.3767L189.037 61.1348L191.495 60.5651L190.161 58.4228L188.629 59.3767ZM169.981 68.2567L168.751 66.9364L169.981 68.2567ZM166.281 92.0847L164.757 93.0503L164.768 93.0682L164.78 93.0858L166.281 92.0847ZM174.569 99.1887L173.762 100.803L173.771 100.807L173.78 100.812L174.569 99.1887ZM207.277 97.1167L208.197 98.6693L207.277 97.1167ZM221.337 84.2407L222.784 85.3193L222.79 85.3112L221.337 84.2407ZM241.021 33.7727V31.968H221.781V33.7727V35.5774H241.021V33.7727ZM221.781 33.7727L223.571 33.5364C222.822 27.8702 220.284 23.2088 215.974 19.6526L214.825 21.0447L213.677 22.4368C217.26 25.3926 219.359 29.2166 219.992 34.009L221.781 33.7727ZM214.825 21.0447L215.991 19.6671C211.71 16.0447 205.812 14.356 198.545 14.356V16.1607V17.9654C205.289 17.9654 210.245 19.5327 213.66 22.4224L214.825 21.0447ZM198.545 16.1607V14.356C194.343 14.356 190.579 14.9193 187.286 16.0879L187.889 17.7887L188.493 19.4895C191.317 18.4875 194.657 17.9654 198.545 17.9654V16.1607ZM187.889 17.7887L187.286 16.0879C183.967 17.2658 181.256 19.0665 179.241 21.5299L180.637 22.6727L182.034 23.8155C183.571 21.9376 185.695 20.4823 188.493 19.4895L187.889 17.7887ZM180.637 22.6727L179.235 21.5372C177.26 23.977 176.317 26.9608 176.317 30.3687H178.121H179.926C179.926 27.6593 180.661 25.5124 182.04 23.8082L180.637 22.6727ZM178.121 30.3687H176.317C176.317 32.9227 177.128 35.5863 178.605 38.3283L180.193 37.4727L181.782 36.6171C180.496 34.2284 179.926 32.156 179.926 30.3687H178.121ZM180.193 37.4727L178.63 38.3745C180.259 41.1977 182.952 44.1186 186.586 47.1471L187.741 45.7607L188.897 44.3743C185.427 41.4828 183.088 38.8783 181.757 36.5709L180.193 37.4727ZM187.741 45.7607L186.576 47.1385L268.272 116.254L269.437 114.877L270.603 113.499L188.907 44.383L187.741 45.7607ZM269.437 114.877V113.072H244.425V114.877V116.681H269.437V114.877ZM244.425 114.877L245.589 113.497L173.957 53.1129L172.793 54.4927L171.63 55.8725L243.262 116.257L244.425 114.877ZM172.793 54.4927L173.972 53.1263C169.027 48.8594 165.363 44.7967 162.922 40.9462L161.397 41.9127L159.873 42.8792C162.562 47.1193 166.496 51.4434 171.615 55.8591L172.793 54.4927ZM161.397 41.9127L162.938 40.9732C160.628 37.1841 159.502 33.3126 159.502 29.3327H157.697H155.893C155.893 34.0355 157.234 38.5506 159.857 42.8522L161.397 41.9127ZM157.697 29.3327H159.502C159.502 24.1907 161.007 19.8115 163.987 16.1083L162.581 14.9767L161.176 13.8452C157.644 18.2325 155.893 23.4241 155.893 29.3327H157.697ZM162.581 14.9767L164.001 16.0917C167.012 12.2584 171.352 9.22406 177.13 7.04533L176.493 5.35671L175.857 3.66809C169.598 6.02802 164.663 9.40699 161.162 13.8617L162.581 14.9767ZM176.493 5.35671L177.145 7.03968C183.008 4.7702 189.98 3.60937 198.101 3.60937V1.8047V3.33786e-05C189.647 3.33786e-05 182.214 1.2072 175.842 3.67373L176.493 5.35671ZM198.101 1.8047V3.60937C206.701 3.60937 213.936 4.96292 219.865 7.59783L220.597 5.9487L221.33 4.29957C214.827 1.40915 207.065 3.33786e-05 198.101 3.33786e-05V1.8047ZM220.597 5.9487L219.874 7.60206C225.939 10.2554 230.545 13.864 233.781 18.3936L235.249 17.3447L236.718 16.2958C233.047 11.1561 227.885 7.16735 221.321 4.29534L220.597 5.9487ZM235.249 17.3447L233.791 18.408C237.03 22.8491 238.846 27.9911 239.22 33.8871L241.021 33.7727L242.823 33.6584C242.408 27.1223 240.376 21.3124 236.708 16.2814L235.249 17.3447ZM242.057 56.1207V57.9254H262.629V56.1207V54.316H242.057V56.1207ZM262.629 56.1207L261.226 54.9857L231.774 91.3937L233.177 92.5287L234.581 93.6637L264.033 57.2557L262.629 56.1207ZM233.177 92.5287L231.768 91.4013C227.503 96.7331 223.065 101.166 218.46 104.715L219.561 106.145L220.663 107.574C225.53 103.823 230.169 99.1776 234.587 93.6561L233.177 92.5287ZM219.561 106.145L218.464 104.712C213.983 108.144 209.076 110.764 203.738 112.576L204.317 114.285L204.897 115.994C210.609 114.056 215.865 111.249 220.659 107.577L219.561 106.145ZM204.317 114.285L203.765 112.567C198.451 114.275 192.377 115.144 185.521 115.144V116.949V118.753C192.677 118.753 199.133 117.847 204.87 116.003L204.317 114.285ZM185.521 116.949V115.144C177.032 115.144 169.853 113.745 163.928 111.017L163.173 112.657L162.419 114.296C168.926 117.291 176.646 118.753 185.521 118.753V116.949ZM163.173 112.657L163.96 111.032C158.078 108.186 153.6 104.478 150.448 99.9359L148.965 100.965L147.483 101.994C151.04 107.121 156.034 111.207 162.387 114.281L163.173 112.657ZM148.965 100.965L150.462 99.9566C147.41 95.4248 145.886 90.3995 145.886 84.8327H144.081H142.277C142.277 91.1059 144.009 96.8353 147.469 101.973L148.965 100.965ZM144.081 84.8327H145.886C145.886 79.5319 147.229 74.8437 149.89 70.7143L148.373 69.7367L146.857 68.7591C143.795 73.5097 142.277 78.8855 142.277 84.8327H144.081ZM148.373 69.7367L149.9 70.6991C152.562 66.4767 156.645 62.8231 162.258 59.7791L161.397 58.1927L160.537 56.6063C154.507 59.8769 149.908 63.9194 146.847 68.7743L148.373 69.7367ZM161.397 58.1927L162.247 59.7851C167.929 56.7545 175.161 54.582 184.001 53.3192L183.745 51.5327L183.49 49.7462C174.372 51.0488 166.706 53.3163 160.548 56.6004L161.397 58.1927ZM183.745 51.5327L182.214 52.4866L187.098 60.3306L188.629 59.3767L190.161 58.4228L185.277 50.5788L183.745 51.5327ZM188.629 59.3767L188.222 57.6186C179.94 59.5375 173.398 62.6064 168.751 66.9364L169.981 68.2567L171.212 69.577C175.248 65.8164 181.137 62.9652 189.037 61.1348L188.629 59.3767ZM169.981 68.2567L168.751 66.9364C164.082 71.2876 161.665 76.4875 161.665 82.4647H163.469H165.274C165.274 77.5886 167.199 73.3165 171.212 69.577L169.981 68.2567ZM163.469 82.4647H161.665C161.665 86.2652 162.702 89.8059 164.757 93.0503L166.281 92.0847L167.806 91.1191C166.112 88.4435 165.274 85.5709 165.274 82.4647H163.469ZM166.281 92.0847L164.78 93.0858C166.947 96.3365 169.963 98.9031 173.762 100.803L174.569 99.1887L175.377 97.5746C172.072 95.9223 169.563 93.7529 167.783 91.0837L166.281 92.0847ZM174.569 99.1887L173.78 100.812C177.728 102.732 182.352 103.657 187.593 103.657V101.853V100.048C182.771 100.048 178.712 99.197 175.359 97.5659L174.569 99.1887ZM187.593 101.853V103.657C195.629 103.657 202.528 102.029 208.197 98.6693L207.277 97.1167L206.357 95.5642C201.371 98.5189 195.147 100.048 187.593 100.048V101.853ZM207.277 97.1167L208.197 98.6693C213.749 95.3794 218.61 90.9193 222.784 85.3193L221.337 84.2407L219.891 83.1621C215.975 88.4154 211.462 92.5393 206.357 95.5642L207.277 97.1167ZM221.337 84.2407L222.79 85.3112L243.51 57.1912L242.057 56.1207L240.605 55.0502L219.885 83.1702L221.337 84.2407ZM307.103 12.9047V11.1H305.299V12.9047H307.103ZM326.639 12.9047H328.444V11.1H326.639V12.9047ZM326.639 114.877V116.681H328.444V114.877H326.639ZM307.103 114.877H305.299V116.681H307.103V114.877ZM261.223 3.8767V2.07203H259.419V3.8767H261.223ZM372.519 3.8767H374.324V2.07203H372.519V3.8767ZM372.519 21.0447V22.8494H374.324V21.0447H372.519ZM261.223 21.0447H259.419V22.8494H261.223V21.0447ZM307.103 12.9047V14.7094H326.639V12.9047V11.1H307.103V12.9047ZM326.639 12.9047H324.835V114.877H326.639H328.444V12.9047H326.639ZM326.639 114.877V113.072H307.103V114.877V116.681H326.639V114.877ZM307.103 114.877H308.908V12.9047H307.103H305.299V114.877H307.103ZM261.223 3.8767V5.68137H372.519V3.8767V2.07203H261.223V3.8767ZM372.519 3.8767H370.715V21.0447H372.519H374.324V3.8767H372.519ZM372.519 21.0447V19.24H261.223V21.0447V22.8494H372.519V21.0447ZM261.223 21.0447H263.028V3.8767H261.223H259.419V21.0447H261.223Z" fill="#0066FF" mask="url(#path-1-outside-1_4265_521)"/>
<mask id="path-3-outside-2_4265_521" maskUnits="userSpaceOnUse" x="-2" y="116.877" width="377" height="119" fill="black">
<rect fill="white" x="-2" y="116.877" width="377" height="119"/>
<path d="M27.232 206.421V190.289H104.784V206.421H27.232ZM78.736 120.877L132.016 231.877H111.148L62.752 128.277H70.3L21.904 231.877H1.036L54.316 120.877H78.736ZM250.623 183.629C250.524 190.535 249.192 197.047 246.627 203.165C244.062 209.183 240.411 214.511 235.675 219.149C230.939 223.786 225.167 227.437 218.359 230.101C211.65 232.666 203.954 233.949 195.271 233.949C186.49 233.949 178.35 232.617 170.851 229.953C163.352 227.289 156.791 223.49 151.167 218.557C145.642 213.525 141.35 207.457 138.291 200.353C135.232 193.249 133.703 185.257 133.703 176.377C133.703 167.497 135.232 159.505 138.291 152.401C141.448 145.297 145.839 139.278 151.463 134.345C157.087 129.313 163.698 125.465 171.295 122.801C178.892 120.137 187.23 118.805 196.307 118.805C207.654 118.805 217.57 120.679 226.055 124.429C234.639 128.079 241.546 133.111 246.775 139.525C252.004 145.938 255.211 153.289 256.395 161.577H236.563C235.478 156.347 233.11 151.809 229.459 147.961C225.907 144.113 221.319 141.153 215.695 139.081C210.071 137.009 203.559 135.973 196.159 135.973C187.476 135.973 179.928 137.601 173.515 140.857C167.2 144.014 162.267 148.602 158.715 154.621C155.262 160.639 153.535 167.891 153.535 176.377C153.535 184.862 155.311 192.163 158.863 198.281C162.514 204.398 167.644 209.085 174.255 212.341C180.866 215.597 188.66 217.225 197.639 217.225C206.322 217.225 213.919 215.745 220.431 212.785C226.943 209.825 232.074 205.73 235.823 200.501C239.572 195.173 241.595 189.006 241.891 182.001L250.623 183.629ZM201.487 192.065V177.265H257.579V231.877H243.075L240.707 185.849L245.295 192.065H201.487ZM368.178 168.237V184.517H290.626V168.237H368.178ZM303.502 176.377L295.658 225.957L286.334 215.005H372.47V231.877H275.678L284.558 176.377L275.678 120.877H371.73V137.749H286.334L295.658 126.797L303.502 176.377Z"/>
</mask>
<path d="M27.232 206.421H25.4273V208.225H27.232V206.421ZM27.232 190.289V188.484H25.4273V190.289H27.232ZM104.784 190.289H106.589V188.484H104.784V190.289ZM104.784 206.421V208.225H106.589V206.421H104.784ZM78.736 120.877L80.363 120.096L79.8716 119.072H78.736V120.877ZM132.016 231.877V233.681H134.884L133.643 231.096L132.016 231.877ZM111.148 231.877L109.513 232.641L109.999 233.681H111.148V231.877ZM62.752 128.277V126.472H59.9171L61.1169 129.041L62.752 128.277ZM70.3 128.277L71.9351 129.041L73.1349 126.472H70.3V128.277ZM21.904 231.877V233.681H23.0528L23.5391 232.641L21.904 231.877ZM1.036 231.877L-0.590949 231.096L-1.83204 233.681H1.036V231.877ZM54.316 120.877V119.072H53.1804L52.6891 120.096L54.316 120.877ZM27.232 206.421H29.0367V190.289H27.232H25.4273V206.421H27.232ZM27.232 190.289V192.093H104.784V190.289V188.484H27.232V190.289ZM104.784 190.289H102.979V206.421H104.784H106.589V190.289H104.784ZM104.784 206.421V204.616H27.232V206.421V208.225H104.784V206.421ZM78.736 120.877L77.1091 121.658L130.389 232.658L132.016 231.877L133.643 231.096L80.363 120.096L78.736 120.877ZM132.016 231.877V230.072H111.148V231.877V233.681H132.016V231.877ZM111.148 231.877L112.783 231.113L64.3871 127.513L62.752 128.277L61.1169 129.041L109.513 232.641L111.148 231.877ZM62.752 128.277V130.081H70.3V128.277V126.472H62.752V128.277ZM70.3 128.277L68.6649 127.513L20.2689 231.113L21.904 231.877L23.5391 232.641L71.9351 129.041L70.3 128.277ZM21.904 231.877V230.072H1.036V231.877V233.681H21.904V231.877ZM1.036 231.877L2.66295 232.658L55.943 121.658L54.316 120.877L52.6891 120.096L-0.590949 231.096L1.036 231.877ZM54.316 120.877V122.681H78.736V120.877V119.072H54.316V120.877ZM250.623 183.629L252.427 183.654L252.449 182.133L250.954 181.855L250.623 183.629ZM246.627 203.165L248.287 203.872L248.291 203.863L246.627 203.165ZM235.675 219.149L234.412 217.859L235.675 219.149ZM218.359 230.101L219.004 231.786L219.017 231.781L218.359 230.101ZM170.851 229.953L170.247 231.653L170.851 229.953ZM151.167 218.557L149.952 219.891L149.964 219.902L149.977 219.913L151.167 218.557ZM138.291 200.353L136.633 201.066L138.291 200.353ZM138.291 152.401L136.642 151.668L136.638 151.677L136.633 151.687L138.291 152.401ZM151.463 134.345L152.653 135.701L152.66 135.696L152.666 135.69L151.463 134.345ZM171.295 122.801L171.892 124.504L171.295 122.801ZM226.055 124.429L225.326 126.079L225.337 126.084L225.349 126.089L226.055 124.429ZM246.775 139.525L245.376 140.665L246.775 139.525ZM256.395 161.577V163.381H258.476L258.181 161.321L256.395 161.577ZM236.563 161.577L234.796 161.943L235.094 163.381H236.563V161.577ZM229.459 147.961L228.133 149.185L228.141 149.194L228.15 149.203L229.459 147.961ZM215.695 139.081L216.319 137.387V137.387L215.695 139.081ZM173.515 140.857L174.322 142.471L174.332 142.466L173.515 140.857ZM158.715 154.621L157.161 153.703L157.155 153.713L157.15 153.723L158.715 154.621ZM158.863 198.281L157.302 199.187L157.308 199.196L157.313 199.206L158.863 198.281ZM174.255 212.341L173.458 213.96L174.255 212.341ZM220.431 212.785L221.178 214.428L220.431 212.785ZM235.823 200.501L237.29 201.552L237.294 201.546L237.299 201.539L235.823 200.501ZM241.891 182.001L242.222 180.227L240.176 179.845L240.088 181.925L241.891 182.001ZM201.487 192.065H199.682V193.869H201.487V192.065ZM201.487 177.265V175.46H199.682V177.265H201.487ZM257.579 177.265H259.384V175.46H257.579V177.265ZM257.579 231.877V233.681H259.384V231.877H257.579ZM243.075 231.877L241.273 231.969L241.361 233.681H243.075V231.877ZM240.707 185.849L242.159 184.777L238.596 179.95L238.905 185.941L240.707 185.849ZM245.295 192.065V193.869H248.87L246.747 190.993L245.295 192.065ZM250.623 183.629L248.818 183.603C248.723 190.288 247.435 196.571 244.963 202.467L246.627 203.165L248.291 203.863C250.95 197.524 252.326 190.782 252.427 183.654L250.623 183.629ZM246.627 203.165L244.967 202.457C242.496 208.255 238.981 213.386 234.412 217.859L235.675 219.149L236.938 220.438C241.841 215.637 245.628 210.112 248.287 203.872L246.627 203.165ZM235.675 219.149L234.412 217.859C229.867 222.31 224.307 225.835 217.701 228.42L218.359 230.101L219.017 231.781C226.027 229.038 232.011 225.262 236.938 220.438L235.675 219.149ZM218.359 230.101L217.714 228.415C211.249 230.887 203.778 232.144 195.271 232.144V233.949V235.753C204.129 235.753 212.05 234.445 219.003 231.786L218.359 230.101ZM195.271 233.949V232.144C186.674 232.144 178.741 230.84 171.455 228.252L170.851 229.953L170.247 231.653C177.958 234.393 186.305 235.753 195.271 235.753V233.949ZM170.851 229.953L171.455 228.252C164.158 225.66 157.799 221.973 152.357 217.2L151.167 218.557L149.977 219.913C155.783 225.007 162.547 228.918 170.247 231.653L170.851 229.953ZM151.167 218.557L152.382 217.222C147.053 212.37 142.909 206.515 139.949 199.639L138.291 200.353L136.633 201.066C139.79 208.398 144.23 214.68 149.952 219.891L151.167 218.557ZM138.291 200.353L139.949 199.639C137 192.791 135.508 185.047 135.508 176.377H133.703H131.898C131.898 185.466 133.464 193.706 136.633 201.066L138.291 200.353ZM133.703 176.377H135.508C135.508 167.706 137 159.962 139.949 153.114L138.291 152.401L136.633 151.687C133.464 159.047 131.898 167.287 131.898 176.377H133.703ZM138.291 152.401L139.94 153.134C142.996 146.259 147.233 140.456 152.653 135.701L151.463 134.345L150.273 132.988C144.445 138.1 139.901 144.335 136.642 151.668L138.291 152.401ZM151.463 134.345L152.666 135.69C158.102 130.826 164.503 127.095 171.892 124.504L171.295 122.801L170.698 121.098C162.892 123.835 156.072 127.799 150.26 133L151.463 134.345ZM171.295 122.801L171.892 124.504C179.275 121.915 187.407 120.609 196.307 120.609V118.805V117C187.052 117 178.51 118.358 170.698 121.098L171.295 122.801ZM196.307 118.805V120.609C207.457 120.609 217.115 122.452 225.326 126.079L226.055 124.429L226.784 122.778C218.024 118.907 207.85 117 196.307 117V118.805ZM226.055 124.429L225.349 126.089C233.698 129.64 240.355 134.506 245.376 140.665L246.775 139.525L248.174 138.384C242.737 131.716 235.58 126.519 226.761 122.768L226.055 124.429ZM246.775 139.525L245.376 140.665C250.396 146.821 253.47 153.865 254.608 161.832L256.395 161.577L258.181 161.321C256.952 152.713 253.613 145.055 248.174 138.384L246.775 139.525ZM256.395 161.577V159.772H236.563V161.577V163.381H256.395V161.577ZM236.563 161.577L238.33 161.21C237.177 155.654 234.652 150.812 230.768 146.719L229.459 147.961L228.15 149.203C231.568 152.805 233.778 157.04 234.796 161.943L236.563 161.577ZM229.459 147.961L230.785 146.737C227.013 142.65 222.172 139.544 216.319 137.387L215.695 139.081L215.071 140.774C220.466 142.762 224.801 145.575 228.133 149.185L229.459 147.961ZM215.695 139.081L216.319 137.387C210.454 135.227 203.724 134.168 196.159 134.168V135.973V137.777C203.394 137.777 209.688 138.791 215.071 140.774L215.695 139.081ZM196.159 135.973V134.168C187.251 134.168 179.412 135.839 172.698 139.248L173.515 140.857L174.332 142.466C180.445 139.362 187.702 137.777 196.159 137.777V135.973ZM173.515 140.857L172.708 139.243C166.086 142.554 160.891 147.382 157.161 153.703L158.715 154.621L160.269 155.538C163.643 149.822 168.315 145.474 174.322 142.471L173.515 140.857ZM158.715 154.621L157.15 153.723C153.508 160.069 151.73 167.646 151.73 176.377H153.535H155.34C155.34 168.137 157.015 161.209 160.28 155.519L158.715 154.621ZM153.535 176.377H151.73C151.73 185.117 153.561 192.744 157.302 199.187L158.863 198.281L160.424 197.375C157.061 191.583 155.34 184.607 155.34 176.377H153.535ZM158.863 198.281L157.313 199.206C161.149 205.633 166.546 210.555 173.458 213.96L174.255 212.341L175.052 210.722C168.743 207.614 163.878 203.163 160.413 197.356L158.863 198.281ZM174.255 212.341L173.458 213.96C180.365 217.362 188.443 219.029 197.639 219.029V217.225V215.42C188.877 215.42 181.367 213.832 175.052 210.722L174.255 212.341ZM197.639 217.225V219.029C206.525 219.029 214.387 217.515 221.178 214.428L220.431 212.785L219.684 211.142C213.451 213.975 206.118 215.42 197.639 215.42V217.225ZM220.431 212.785L221.178 214.428C227.944 211.352 233.336 207.066 237.29 201.552L235.823 200.501L234.356 199.449C230.811 204.394 225.941 208.298 219.684 211.142L220.431 212.785ZM235.823 200.501L237.299 201.539C241.262 195.907 243.385 189.4 243.694 182.077L241.891 182.001L240.088 181.925C239.805 188.612 237.882 194.439 234.347 199.462L235.823 200.501ZM241.891 182.001L241.56 183.775L250.292 185.403L250.623 183.629L250.954 181.855L242.222 180.227L241.891 182.001ZM201.487 192.065H203.292V177.265H201.487H199.682V192.065H201.487ZM201.487 177.265V179.069H257.579V177.265V175.46H201.487V177.265ZM257.579 177.265H255.774V231.877H257.579H259.384V177.265H257.579ZM257.579 231.877V230.072H243.075V231.877V233.681H257.579V231.877ZM243.075 231.877L244.877 231.784L242.509 185.756L240.707 185.849L238.905 185.941L241.273 231.969L243.075 231.877ZM240.707 185.849L239.255 186.92L243.843 193.136L245.295 192.065L246.747 190.993L242.159 184.777L240.707 185.849ZM245.295 192.065V190.26H201.487V192.065V193.869H245.295V192.065ZM368.178 168.237H369.982V166.432H368.178V168.237ZM368.178 184.517V186.321H369.982V184.517H368.178ZM290.626 184.517H288.821V186.321H290.626V184.517ZM290.626 168.237V166.432H288.821V168.237H290.626ZM303.502 176.377L305.284 176.659L305.329 176.377L305.284 176.095L303.502 176.377ZM295.658 225.957L294.284 227.127L296.827 230.114L297.44 226.239L295.658 225.957ZM286.334 215.005V213.2H282.427L284.96 216.175L286.334 215.005ZM372.47 215.005H374.274V213.2H372.47V215.005ZM372.47 231.877V233.681H374.274V231.877H372.47ZM275.678 231.877L273.896 231.592L273.561 233.681H275.678V231.877ZM284.558 176.377L286.34 176.662L286.385 176.377L286.34 176.092L284.558 176.377ZM275.678 120.877V119.072H273.561L273.896 121.162L275.678 120.877ZM371.73 120.877H373.534V119.072H371.73V120.877ZM371.73 137.749V139.553H373.534V137.749H371.73ZM286.334 137.749L284.96 136.579L282.427 139.553H286.334V137.749ZM295.658 126.797L297.44 126.515L296.827 122.639L294.284 125.627L295.658 126.797ZM368.178 168.237H366.373V184.517H368.178H369.982V168.237H368.178ZM368.178 184.517V182.712H290.626V184.517V186.321H368.178V184.517ZM290.626 184.517H292.43V168.237H290.626H288.821V184.517H290.626ZM290.626 168.237V170.041H368.178V168.237V166.432H290.626V168.237ZM303.502 176.377L301.719 176.095L293.875 225.675L295.658 225.957L297.44 226.239L305.284 176.659L303.502 176.377ZM295.658 225.957L297.032 224.787L287.708 213.835L286.334 215.005L284.96 216.175L294.284 227.127L295.658 225.957ZM286.334 215.005V216.809H372.47V215.005V213.2H286.334V215.005ZM372.47 215.005H370.665V231.877H372.47H374.274V215.005H372.47ZM372.47 231.877V230.072H275.678V231.877V233.681H372.47V231.877ZM275.678 231.877L277.46 232.162L286.34 176.662L284.558 176.377L282.776 176.092L273.896 231.592L275.678 231.877ZM284.558 176.377L286.34 176.092L277.46 120.592L275.678 120.877L273.896 121.162L282.776 176.662L284.558 176.377ZM275.678 120.877V122.681H371.73V120.877V119.072H275.678V120.877ZM371.73 120.877H369.925V137.749H371.73H373.534V120.877H371.73ZM371.73 137.749V135.944H286.334V137.749V139.553H371.73V137.749ZM286.334 137.749L287.708 138.919L297.032 127.967L295.658 126.797L294.284 125.627L284.96 136.579L286.334 137.749ZM295.658 126.797L293.875 127.079L301.719 176.659L303.502 176.377L305.284 176.095L297.44 126.515L295.658 126.797Z" fill="#0066FF" mask="url(#path-3-outside-2_4265_521)"/>
<mask id="path-5-outside-3_4265_521" maskUnits="userSpaceOnUse" x="10" y="233.877" width="385" height="119" fill="black">
<rect fill="white" x="10" y="233.877" width="385" height="119"/>
<path d="M115.292 337.037L107.3 337.925V237.877H126.244V348.877H101.38L23.532 248.829L31.376 247.941V348.877H12.432V237.877H37.888L115.292 337.037ZM268.105 304.921C267.119 313.998 263.912 322.039 258.485 329.045C253.157 335.951 246.152 341.329 237.469 345.177C228.787 349.025 218.871 350.949 207.721 350.949C195.289 350.949 184.387 348.531 175.013 343.697C165.64 338.862 158.339 332.153 153.109 323.569C147.88 314.886 145.265 304.822 145.265 293.377C145.265 281.931 147.88 271.917 153.109 263.333C158.339 254.65 165.64 247.891 175.013 243.057C184.387 238.222 195.289 235.805 207.721 235.805C218.871 235.805 228.787 237.729 237.469 241.577C246.152 245.425 253.157 250.802 258.485 257.709C263.912 264.615 267.119 272.657 268.105 281.833H248.421C247.336 275.913 244.968 270.831 241.317 266.589C237.765 262.346 233.128 259.09 227.405 256.821C221.683 254.453 215.072 253.269 207.573 253.269C198.891 253.269 191.343 254.897 184.929 258.153C178.615 261.409 173.731 266.046 170.277 272.065C166.824 278.083 165.097 285.187 165.097 293.377C165.097 301.566 166.824 308.67 170.277 314.689C173.731 320.707 178.615 325.345 184.929 328.601C191.343 331.857 198.891 333.485 207.573 333.485C215.072 333.485 221.683 332.35 227.405 330.081C233.128 327.811 237.765 324.555 241.317 320.313C244.968 315.971 247.336 310.841 248.421 304.921H268.105ZM318.674 348.877V295.893H338.21V348.877H318.674ZM266.282 237.877H288.334L333.622 294.709H323.114L368.402 237.877H390.454L334.658 307.881L322.226 308.029L266.282 237.877Z"/>
</mask>
<path d="M115.292 337.037L115.491 338.83L118.703 338.473L116.715 335.926L115.292 337.037ZM107.3 337.925H105.495V339.941L107.499 339.718L107.3 337.925ZM107.3 237.877V236.072H105.495V237.877H107.3ZM126.244 237.877H128.049V236.072H126.244V237.877ZM126.244 348.877V350.681H128.049V348.877H126.244ZM101.38 348.877L99.9557 349.985L100.498 350.681H101.38V348.877ZM23.532 248.829L23.329 247.035L20.1317 247.397L22.1077 249.937L23.532 248.829ZM31.376 247.941H33.1807V245.92L31.173 246.147L31.376 247.941ZM31.376 348.877V350.681H33.1807V348.877H31.376ZM12.432 348.877H10.6273V350.681H12.432V348.877ZM12.432 237.877V236.072H10.6273V237.877H12.432ZM37.888 237.877L39.3106 236.766L38.7687 236.072H37.888V237.877ZM115.292 337.037L115.093 335.243L107.101 336.131L107.3 337.925L107.499 339.718L115.491 338.83L115.292 337.037ZM107.3 337.925H109.105V237.877H107.3H105.495V337.925H107.3ZM107.3 237.877V239.681H126.244V237.877V236.072H107.3V237.877ZM126.244 237.877H124.439V348.877H126.244H128.049V237.877H126.244ZM126.244 348.877V347.072H101.38V348.877V350.681H126.244V348.877ZM101.38 348.877L102.804 347.768L24.9563 247.72L23.532 248.829L22.1077 249.937L99.9557 349.985L101.38 348.877ZM23.532 248.829L23.735 250.622L31.579 249.734L31.376 247.941L31.173 246.147L23.329 247.035L23.532 248.829ZM31.376 247.941H29.5713V348.877H31.376H33.1807V247.941H31.376ZM31.376 348.877V347.072H12.432V348.877V350.681H31.376V348.877ZM12.432 348.877H14.2367V237.877H12.432H10.6273V348.877H12.432ZM12.432 237.877V239.681H37.888V237.877V236.072H12.432V237.877ZM37.888 237.877L36.4654 238.987L113.869 338.147L115.292 337.037L116.715 335.926L39.3106 236.766L37.888 237.877ZM268.105 304.921L269.9 305.116L270.117 303.116H268.105V304.921ZM258.485 329.045L257.059 327.94L257.057 327.942L258.485 329.045ZM237.469 345.177L238.201 346.827L237.469 345.177ZM175.013 343.697L174.186 345.301L175.013 343.697ZM153.109 323.569L151.564 324.5L151.568 324.508L153.109 323.569ZM153.109 263.333L154.651 264.272L154.655 264.264L153.109 263.333ZM175.013 243.057L174.186 241.453V241.453L175.013 243.057ZM237.469 241.577L236.738 243.227V243.227L237.469 241.577ZM258.485 257.709L257.057 258.811L257.061 258.817L257.066 258.824L258.485 257.709ZM268.105 281.833V283.637H270.115L269.9 281.64L268.105 281.833ZM248.421 281.833L246.646 282.158L246.918 283.637H248.421V281.833ZM241.317 266.589L239.934 267.747L239.942 267.757L239.95 267.766L241.317 266.589ZM227.405 256.821L226.715 258.488L226.728 258.493L226.74 258.498L227.405 256.821ZM184.929 258.153L184.113 256.544L184.102 256.549L184.929 258.153ZM170.277 272.065L168.712 271.167L170.277 272.065ZM170.277 314.689L171.843 313.791L170.277 314.689ZM184.929 328.601L184.102 330.205L184.113 330.21L184.929 328.601ZM227.405 330.081L226.74 328.403L227.405 330.081ZM241.317 320.313L239.936 319.151L239.934 319.154L241.317 320.313ZM248.421 304.921V303.116H246.918L246.646 304.595L248.421 304.921ZM268.105 304.921L266.311 304.726C265.36 313.482 262.275 321.206 257.059 327.94L258.485 329.045L259.912 330.15C265.549 322.873 268.878 314.514 269.9 305.116L268.105 304.921ZM258.485 329.045L257.057 327.942C251.928 334.591 245.171 339.789 236.738 343.527L237.469 345.177L238.201 346.827C247.133 342.868 254.387 337.312 259.914 330.147L258.485 329.045ZM237.469 345.177L236.738 343.527C228.322 347.257 218.662 349.144 207.721 349.144V350.949V352.753C219.079 352.753 229.251 350.793 238.201 346.827L237.469 345.177ZM207.721 350.949V349.144C195.526 349.144 184.916 346.774 175.841 342.093L175.013 343.697L174.186 345.301C183.857 350.289 195.053 352.753 207.721 352.753V350.949ZM175.013 343.697L175.841 342.093C166.747 337.402 159.699 330.917 154.651 322.63L153.109 323.569L151.568 324.508C156.979 333.389 164.534 340.322 174.186 345.301L175.013 343.697ZM153.109 323.569L154.655 322.638C149.616 314.271 147.07 304.537 147.07 293.377H145.265H143.461C143.461 305.107 146.144 315.501 151.564 324.5L153.109 323.569ZM145.265 293.377H147.07C147.07 282.216 149.617 272.535 154.651 264.272L153.109 263.333L151.568 262.394C146.144 271.298 143.461 281.647 143.461 293.377H145.265ZM153.109 263.333L154.655 264.264C159.705 255.88 166.752 249.348 175.841 244.661L175.013 243.057L174.186 241.453C164.528 246.434 156.973 253.42 151.564 262.402L153.109 263.333ZM175.013 243.057L175.841 244.661C184.916 239.98 195.526 237.609 207.721 237.609V235.805V234C195.053 234 183.857 236.465 174.186 241.453L175.013 243.057ZM207.721 235.805V237.609C218.662 237.609 228.322 239.497 236.738 243.227L237.469 241.577L238.201 239.927C229.251 235.961 219.079 234 207.721 234V235.805ZM237.469 241.577L236.738 243.227C245.171 246.964 251.928 252.163 257.057 258.811L258.485 257.709L259.914 256.606C254.387 249.441 247.133 243.885 238.201 239.927L237.469 241.577ZM258.485 257.709L257.066 258.824C262.273 265.45 265.359 273.168 266.311 282.026L268.105 281.833L269.9 281.64C268.879 272.145 265.551 263.78 259.905 256.594L258.485 257.709ZM268.105 281.833V280.028H248.421V281.833V283.637H268.105V281.833ZM248.421 281.833L250.197 281.507C249.058 275.297 246.561 269.915 242.685 265.412L241.317 266.589L239.95 267.766C243.376 271.747 245.614 276.529 246.646 282.158L248.421 281.833ZM241.317 266.589L242.701 265.43C238.936 260.932 234.04 257.51 228.071 255.143L227.405 256.821L226.74 258.498C232.216 260.67 236.595 263.76 239.934 267.747L241.317 266.589ZM227.405 256.821L228.095 255.153C222.113 252.678 215.26 251.464 207.573 251.464V253.269V255.073C214.884 255.073 221.252 256.228 226.715 258.488L227.405 256.821ZM207.573 253.269V251.464C198.665 251.464 190.826 253.135 184.113 256.544L184.929 258.153L185.746 259.762C191.859 256.658 199.117 255.073 207.573 255.073V253.269ZM184.929 258.153L184.102 256.549C177.487 259.96 172.343 264.839 168.712 271.167L170.277 272.065L171.843 272.963C175.119 267.253 179.743 262.857 185.757 259.757L184.929 258.153ZM170.277 272.065L168.712 271.167C165.076 277.504 163.293 284.929 163.293 293.377H165.097H166.902C166.902 285.445 168.572 278.663 171.843 272.963L170.277 272.065ZM165.097 293.377H163.293C163.293 301.824 165.076 309.249 168.712 315.587L170.277 314.689L171.843 313.791C168.572 308.091 166.902 301.308 166.902 293.377H165.097ZM170.277 314.689L168.712 315.587C172.343 321.915 177.487 326.793 184.102 330.205L184.929 328.601L185.757 326.997C179.743 323.896 175.119 319.5 171.843 313.791L170.277 314.689ZM184.929 328.601L184.113 330.21C190.826 333.618 198.665 335.289 207.573 335.289V333.485V331.68C199.117 331.68 191.859 330.095 185.746 326.992L184.929 328.601ZM207.573 333.485V335.289C215.252 335.289 222.096 334.128 228.071 331.758L227.405 330.081L226.74 328.403C221.27 330.572 214.893 331.68 207.573 331.68V333.485ZM227.405 330.081L228.071 331.758C234.04 329.391 238.936 325.969 242.701 321.471L241.317 320.313L239.934 319.154C236.595 323.142 232.216 326.232 226.74 328.403L227.405 330.081ZM241.317 320.313L242.699 321.474C246.563 316.878 249.058 311.455 250.197 305.246L248.421 304.921L246.646 304.595C245.614 310.227 243.373 315.064 239.936 319.151L241.317 320.313ZM248.421 304.921V306.725H268.105V304.921V303.116H248.421V304.921ZM318.674 348.877H316.869V350.681H318.674V348.877ZM318.674 295.893V294.088H316.869V295.893H318.674ZM338.21 295.893H340.015V294.088H338.21V295.893ZM338.21 348.877V350.681H340.015V348.877H338.21ZM266.282 237.877V236.072H262.535L264.871 239.002L266.282 237.877ZM288.334 237.877L289.745 236.752L289.204 236.072H288.334V237.877ZM333.622 294.709V296.513H337.368L335.033 293.584L333.622 294.709ZM323.114 294.709L321.703 293.584L319.368 296.513H323.114V294.709ZM368.402 237.877V236.072H367.533L366.991 236.752L368.402 237.877ZM390.454 237.877L391.865 239.002L394.2 236.072H390.454V237.877ZM334.658 307.881L334.68 309.685L335.536 309.675L336.069 309.006L334.658 307.881ZM322.226 308.029L320.815 309.154L321.365 309.844L322.248 309.833L322.226 308.029ZM318.674 348.877H320.479V295.893H318.674H316.869V348.877H318.674ZM318.674 295.893V297.697H338.21V295.893V294.088H318.674V295.893ZM338.21 295.893H336.405V348.877H338.21H340.015V295.893H338.21ZM338.21 348.877V347.072H318.674V348.877V350.681H338.21V348.877ZM266.282 237.877V239.681H288.334V237.877V236.072H266.282V237.877ZM288.334 237.877L286.923 239.001L332.211 295.833L333.622 294.709L335.033 293.584L289.745 236.752L288.334 237.877ZM333.622 294.709V292.904H323.114V294.709V296.513H333.622V294.709ZM323.114 294.709L324.525 295.833L369.813 239.001L368.402 237.877L366.991 236.752L321.703 293.584L323.114 294.709ZM368.402 237.877V239.681H390.454V237.877V236.072H368.402V237.877ZM390.454 237.877L389.043 236.752L333.247 306.756L334.658 307.881L336.069 309.006L391.865 239.002L390.454 237.877ZM334.658 307.881L334.637 306.076L322.205 306.224L322.226 308.029L322.248 309.833L334.68 309.685L334.658 307.881ZM322.226 308.029L323.637 306.904L267.693 236.752L266.282 237.877L264.871 239.002L320.815 309.154L322.226 308.029Z" fill="#0066FF" mask="url(#path-5-outside-3_4265_521)"/>
</svg>
